<svg xmlns="http://www.w3.org/2000/svg" viewBox="0 0 10.02 8.17"><defs><style>.cls-1{fill:#e6b706;}</style></defs><title>Recurso 28</title><g id="Capa_2" data-name="Capa 2"><g id="Layer_1" data-name="Layer 1"><path class="cls-1" d="M9.86,4.22,8.34,2.7V1A.58.58,0,0,0,7.76.37.57.57,0,0,0,7.19,1v.6L6.06.42A1.52,1.52,0,0,0,4,.42L.17,4.22A.56.56,0,0,0,.17,5,.58.58,0,0,0,1,5l.42-.42a.29.29,0,0,0,0,.09V7.13a1,1,0,0,0,1,1H4.08V5.6H5.94V8.17H7.6a1,1,0,0,0,1-1V4.7a.28.28,0,0,0,0-.09L9,5a.58.58,0,0,0,.41.17A.62.62,0,0,0,9.86,5,.58.58,0,0,0,9.86,4.22Z"/></g></g></svg>