<svg xmlns="http://www.w3.org/2000/svg" viewBox="0 0 6.54 12.09"><defs><style>.cls-1{fill:#fff;}</style></defs><title>Recurso 5</title><g id="Capa_2" data-name="Capa 2"><g id="Layer_1" data-name="Layer 1"><path class="cls-1" d="M6.29,0H4.72a2.76,2.76,0,0,0-2.9,3V4.35H.25A.25.25,0,0,0,0,4.59v2a.25.25,0,0,0,.25.25H1.82v5a.25.25,0,0,0,.25.25H4.13a.25.25,0,0,0,.24-.25v-5H6.21a.25.25,0,0,0,.25-.25v-2a.24.24,0,0,0-.24-.24H4.37V3.18c0-.55.13-.84.86-.84H6.29a.25.25,0,0,0,.25-.25V.25A.25.25,0,0,0,6.29,0Z"/></g></g></svg>