<svg xmlns="http://www.w3.org/2000/svg" viewBox="0 0 25.03 17.71"><defs><style>.cls-1{fill:#bfc0c4;}</style></defs><title>Recurso 17</title><g id="Capa_2" data-name="Capa 2"><g id="Layer_1" data-name="Layer 1"><path class="cls-1" d="M24.88,5.48a.63.63,0,0,0-.49-.24H22c-.6-1.58-1.38-3.13-2.27-3.72-3.08-2-11.25-2-14.33,0-.89.59-1.67,2.14-2.27,3.72H.64a.63.63,0,0,0-.49.24A.61.61,0,0,0,0,6L.38,7.76A.63.63,0,0,0,1,8.27h.72a4.35,4.35,0,0,0-1,2.83A4.2,4.2,0,0,0,2,14.28l0,0v2.45a1,1,0,0,0,1,1H5.26a1,1,0,0,0,1-1v-1H18.81v1a1,1,0,0,0,1,1H22a1,1,0,0,0,1-1v-2.4a4.24,4.24,0,0,0,1.36-3.16,4.32,4.32,0,0,0-1.08-2.92H24a.63.63,0,0,0,.62-.51L25,6A.68.68,0,0,0,24.88,5.48ZM6.41,3.12c2.45-1.61,9.76-1.61,12.21,0a7.93,7.93,0,0,1,1.65,3.13H4.76A7.93,7.93,0,0,1,6.41,3.12ZM3.53,11.34a1.89,1.89,0,1,1,1.89,1.89A1.89,1.89,0,0,1,3.53,11.34Zm16.1,1.89a1.89,1.89,0,1,1,1.89-1.89A1.89,1.89,0,0,1,19.63,13.23Z"/></g></g></svg>