<svg xmlns="http://www.w3.org/2000/svg" viewBox="0 0 26.06 21.05"><defs><style>.cls-1{fill:#bfc0c4;}</style></defs><title>Recurso 20</title><g id="Capa_2" data-name="Capa 2"><g id="Layer_1" data-name="Layer 1"><path class="cls-1" d="M26,14.06,23.14,9.52V1.17L22,0H4.09L2.92,1.17V9.52L.05,14.06ZM20.8,2.33V8.16A31.69,31.69,0,0,0,13,7.29a31.69,31.69,0,0,0-7.77.87V2.33Z"/><polygon class="cls-1" points="0 15.5 0 17.84 2.72 17.84 2.72 21.05 5.06 21.05 5.06 17.84 21 17.84 21 21.05 23.34 21.05 23.34 17.84 26.06 17.84 26.06 15.5 0 15.5"/><path class="cls-1" d="M12.08,6.08V4.72c0-.81-1.17-1.46-2.62-1.46s-2.61.65-2.61,1.46v2a21.67,21.67,0,0,1,2.6-.49C10.41,6.18,12.08,6.08,12.08,6.08Z"/><path class="cls-1" d="M19.21,6.76v-2c0-.81-1.17-1.46-2.61-1.46S14,3.91,14,4.72V6.08s1.67.1,2.63.19A21.67,21.67,0,0,1,19.21,6.76Z"/></g></g></svg>