<svg xmlns="http://www.w3.org/2000/svg" viewBox="0 0 10.6 8.61"><defs><style>.cls-1{fill:#fff;}</style></defs><title>Recurso 4</title><g id="Capa_2" data-name="Capa 2"><g id="Layer_1" data-name="Layer 1"><path class="cls-1" d="M10.6,1a4.36,4.36,0,0,1-1.25.34,2.16,2.16,0,0,0,1-1.2A4.44,4.44,0,0,1,8.93.69,2.17,2.17,0,0,0,5.17,2.17a2.07,2.07,0,0,0,0,.5A6.17,6.17,0,0,1,.74.4a2.12,2.12,0,0,0-.3,1.09,2.18,2.18,0,0,0,1,1.81A2.18,2.18,0,0,1,.43,3v0A2.18,2.18,0,0,0,2.17,5.19a2.12,2.12,0,0,1-.57.07,1.84,1.84,0,0,1-.41,0,2.16,2.16,0,0,0,2,1.51,4.31,4.31,0,0,1-2.7.93,4.41,4.41,0,0,1-.52,0,6.13,6.13,0,0,0,3.33,1A6.14,6.14,0,0,0,9.52,2.42V2.14A4.27,4.27,0,0,0,10.6,1Z"/></g></g></svg>