<svg xmlns="http://www.w3.org/2000/svg" viewBox="0 0 31.54 31.54"><defs><style>.cls-1{fill:#fff;}</style></defs><title>Recurso 15</title><g id="Capa_2" data-name="Capa 2"><g id="Layer_1" data-name="Layer 1"><path class="cls-1" d="M15.78,13.43a1.68,1.68,0,0,0-1.39.77,3.36,3.36,0,0,0-.56,2,3.29,3.29,0,0,0,.4,1.7,1.19,1.19,0,0,0,1,.68,2,2,0,0,0,1.64-.93,3.49,3.49,0,0,0,.7-2.13A2.14,2.14,0,0,0,17.06,14,1.76,1.76,0,0,0,15.78,13.43Z"/><path class="cls-1" d="M29.8,1.73A5.71,5.71,0,0,0,25.62,0H5.91A5.72,5.72,0,0,0,1.73,1.73,5.72,5.72,0,0,0,0,5.91V25.62A5.71,5.71,0,0,0,1.73,29.8a5.69,5.69,0,0,0,4.18,1.74H25.62a5.94,5.94,0,0,0,5.92-5.92V5.91A5.69,5.69,0,0,0,29.8,1.73ZM24,19.19a5,5,0,0,1-3.95,2A2.64,2.64,0,0,1,17.67,20a3.24,3.24,0,0,1-2.55,1.25,3.61,3.61,0,0,1-2.85-1.41,5.53,5.53,0,0,1-1.19-3.71,5.52,5.52,0,0,1,1.34-3.85,4.17,4.17,0,0,1,3.21-1.49,3.39,3.39,0,0,1,2.18.81L18,11h2.6l-.75,6.18a9.39,9.39,0,0,0-.07,1.1c0,.39.18.58.53.58a2.52,2.52,0,0,0,1.92-1.25,5.17,5.17,0,0,0,.92-3.14,5.9,5.9,0,0,0-2-4.57,7.1,7.1,0,0,0-4.93-1.81,7.18,7.18,0,0,0-5.34,2.21,7.54,7.54,0,0,0-2.18,5.51,7.69,7.69,0,0,0,2,5.3,7.35,7.35,0,0,0,5.74,2.25,12,12,0,0,0,4.77-1,1.22,1.22,0,0,1,1.61.65,1.23,1.23,0,0,1-.66,1.58,14.41,14.41,0,0,1-5.72,1.19,10.2,10.2,0,0,1-7.68-2.93,9.71,9.71,0,0,1-2.85-7,9.43,9.43,0,0,1,3-7.11,10.12,10.12,0,0,1,7.25-2.86,9.61,9.61,0,0,1,6.77,2.51,8,8,0,0,1,2.73,6.08A7.21,7.21,0,0,1,24,19.19Z"/></g></g></svg>