<svg xmlns="http://www.w3.org/2000/svg" viewBox="0 0 611.5 106.11"><defs><style>.cls-1{fill:#fff;}</style></defs><title>Recurso 25</title><g id="Capa_2" data-name="Capa 2"><g id="Layer_1" data-name="Layer 1"><path class="cls-1" d="M181.85,58.49c8.08,0,14.65-7.52,14.65-16.61a18.1,18.1,0,0,0-4.29-11.69,21,21,0,0,0,.63-4.8c0-8.08-4.93-14.77-11-14.77s-11.11,6.69-11.11,14.77a21,21,0,0,0,.63,4.8,17.6,17.6,0,0,0-4.3,11.69C167.07,51,173.77,58.49,181.85,58.49Z"/><path class="cls-1" d="M196.14,29.32a21.62,21.62,0,0,1,4,12.56A21.28,21.28,0,0,1,194.08,57a13.22,13.22,0,0,0,6.09,1.54c8.08,0,14.65-7.52,14.65-16.61a17.6,17.6,0,0,0-4.3-11.69,20.82,20.82,0,0,0,.64-4.8c0-8.08-4.93-14.77-11-14.77A9.41,9.41,0,0,0,193.28,14a21.59,21.59,0,0,1,3.22,11.44A22.15,22.15,0,0,1,196.14,29.32Z"/><path class="cls-1" d="M353.35,64.49C361.43,64.49,368,57,368,47.88a18.1,18.1,0,0,0-4.29-11.69,21,21,0,0,0,.63-4.8c0-8.08-4.93-14.77-11-14.77s-11.11,6.69-11.11,14.77a21,21,0,0,0,.63,4.8,17.6,17.6,0,0,0-4.3,11.69C338.57,57,345.27,64.49,353.35,64.49Z"/><path class="cls-1" d="M367.64,35.32a21.62,21.62,0,0,1,4,12.56A21.28,21.28,0,0,1,365.58,63a13.22,13.22,0,0,0,6.09,1.54c8.08,0,14.65-7.52,14.65-16.61A17.6,17.6,0,0,0,382,36.19a20.24,20.24,0,0,0,.64-4.8c0-8.08-4.93-14.77-11-14.77A9.42,9.42,0,0,0,364.78,20,21.59,21.59,0,0,1,368,31.39,22.15,22.15,0,0,1,367.64,35.32Z"/><path class="cls-1" d="M407.35,59.49C415.43,59.49,422,52,422,42.88a18.1,18.1,0,0,0-4.29-11.69,21,21,0,0,0,.63-4.8c0-8.08-4.93-14.77-11-14.77s-11.11,6.69-11.11,14.77a21,21,0,0,0,.63,4.8,17.6,17.6,0,0,0-4.3,11.69C392.57,52,399.27,59.49,407.35,59.49Z"/><path class="cls-1" d="M421.64,30.32a21.62,21.62,0,0,1,4,12.56A21.28,21.28,0,0,1,419.58,58a13.22,13.22,0,0,0,6.09,1.54c8.08,0,14.65-7.52,14.65-16.61A17.6,17.6,0,0,0,436,31.19a20.24,20.24,0,0,0,.64-4.8c0-8.08-4.93-14.77-11-14.77A9.42,9.42,0,0,0,418.78,15,21.59,21.59,0,0,1,422,26.39,22.15,22.15,0,0,1,421.64,30.32Z"/><path class="cls-1" d="M57.1,48c8,0,14.49-7.44,14.49-16.42A17.8,17.8,0,0,0,67.34,20,20.69,20.69,0,0,0,68,15.23C68,7.24,63.09.62,57.1.62s-11,6.62-11,14.61A20.49,20.49,0,0,0,46.74,20a17.46,17.46,0,0,0-4.25,11.56C42.49,40.51,49.11,48,57.1,48Z"/><path class="cls-1" d="M71.23,19.11a21.41,21.41,0,0,1,4,12.42,21.07,21.07,0,0,1-6,14.9,13,13,0,0,0,6,1.52c8,0,14.49-7.44,14.49-16.42A17.4,17.4,0,0,0,85.45,20a20.49,20.49,0,0,0,.63-4.74c0-8-4.88-14.61-10.87-14.61A9.3,9.3,0,0,0,68.4,3.91a21.33,21.33,0,0,1,3.19,11.32A21.63,21.63,0,0,1,71.23,19.11Z"/><path class="cls-1" d="M546.38,30.91c0,9,6.5,16.42,14.49,16.42s14.61-7.43,14.61-16.42a17.49,17.49,0,0,0-4.25-11.56,20.7,20.7,0,0,0,.62-4.74c0-8-5-14.61-11-14.61S550,6.62,550,14.61a20,20,0,0,0,.63,4.74A17.8,17.8,0,0,0,546.38,30.91Z"/><path class="cls-1" d="M542.76,47.33a13,13,0,0,0,6-1.52,21.05,21.05,0,0,1-6-14.9,21.33,21.33,0,0,1,4-12.42,21.63,21.63,0,0,1-.36-3.88,21.24,21.24,0,0,1,3.19-11.32A9.34,9.34,0,0,0,542.76,0c-6,0-10.87,6.62-10.87,14.61a20.49,20.49,0,0,0,.63,4.74,17.43,17.43,0,0,0-4.25,11.56C528.27,39.9,534.77,47.33,542.76,47.33Z"/><path class="cls-1" d="M564.49,53.12V50.55a16.63,16.63,0,0,1-7.25,0v3.27l-10.86,1.06V50.52a15.78,15.78,0,0,1-3.62.43,16.82,16.82,0,0,1-3.63-.4v5l-7.24.71V54.57h1.81a1.81,1.81,0,0,0,0-3.62h-1.81V45.52a1.81,1.81,0,0,0-1.81-1.81h-11a1.81,1.81,0,0,0-1.81,1.81V51h-1.81a1.81,1.81,0,0,0,0,3.62h1.81v3.14l-20.16,2V42.74H501A2.74,2.74,0,0,0,503.54,41a2.77,2.77,0,0,0-.71-3l-4.47-4.07V25.15a2,2,0,0,0-2-2h-9.76L478.72,16A2.75,2.75,0,0,0,475,16l-24.1,22a2.76,2.76,0,0,0,1.85,4.8h3.85V63.61l-27.27,2.65V62.74a16.43,16.43,0,0,1-3.66.41,16.23,16.23,0,0,1-3.67-.44V67L411,68v-5.3a16.54,16.54,0,0,1-7.32,0v6l-28.36,2.75V67.74a16.43,16.43,0,0,1-3.66.41,16.23,16.23,0,0,1-3.67-.44v4.51l-11,1.07V67.74a16.54,16.54,0,0,1-7.32,0V74l-42.19,4.1L203.83,68.33V61.74a16.43,16.43,0,0,1-3.66.41,16.23,16.23,0,0,1-3.67-.44v5.93l-11-1V61.74a16.54,16.54,0,0,1-7.32,0v4.17l-22.57-2.12V42.24h3.85A2.74,2.74,0,0,0,162,40.48a2.77,2.77,0,0,0-.71-3l-4.47-4.07V24.65a2,2,0,0,0-2-2h-9.76l-7.89-7.19a2.75,2.75,0,0,0-3.72,0l-24.1,22a2.76,2.76,0,0,0,1.85,4.8h3.85V60L100.69,58.6V55.19h1.81a1.81,1.81,0,0,0,0-3.62h-1.81V46.13a1.81,1.81,0,0,0-1.82-1.81h-11a1.81,1.81,0,0,0-1.81,1.81v5.44H84.27a1.81,1.81,0,0,0,0,3.62h1.81v2l-7.25-.69V51.17a16.66,16.66,0,0,1-3.62.4,16.36,16.36,0,0,1-3.62-.43v4.72l-10.87-1V51.17a16.58,16.58,0,0,1-7.24,0v3L0,49.11v57H611.5V48.55ZM89.7,55.19h7.36v3.07l-7.36-.69Zm431.2-.62h7.37v2.07l-7.37.72Z"/></g></g></svg>