<svg xmlns="http://www.w3.org/2000/svg" viewBox="0 0 12.55 9.62"><defs><style>.cls-1{fill:#e6b706;}</style></defs><title>Recurso 22</title><g id="Capa_2" data-name="Capa 2"><g id="Layer_1" data-name="Layer 1"><path class="cls-1" d="M12.32,1.33,11.22.23A.76.76,0,0,0,10.67,0a.75.75,0,0,0-.55.23L4.81,5.54,2.43,3.16a.76.76,0,0,0-.55-.23.75.75,0,0,0-.55.23L.23,4.26A.75.75,0,0,0,0,4.81a.76.76,0,0,0,.23.55L3.16,8.29l1.1,1.1a.75.75,0,0,0,.55.23.76.76,0,0,0,.55-.23l1.1-1.1,5.86-5.86a.76.76,0,0,0,.23-.55A.75.75,0,0,0,12.32,1.33Z"/></g></g></svg>