<svg xmlns="http://www.w3.org/2000/svg" viewBox="0 0 31.54 31.54"><defs><style>.cls-1{fill:#39211f;}</style></defs><title>Recurso 11</title><g id="Capa_2" data-name="Capa 2"><g id="Layer_1" data-name="Layer 1"><path class="cls-1" d="M29.8,1.73A5.71,5.71,0,0,0,25.62,0H5.91A5.72,5.72,0,0,0,1.73,1.73,5.72,5.72,0,0,0,0,5.91V25.62A5.71,5.71,0,0,0,1.73,29.8a5.69,5.69,0,0,0,4.18,1.74H25.62a5.94,5.94,0,0,0,5.92-5.92V5.91A5.69,5.69,0,0,0,29.8,1.73ZM21.19,18l-5.42,6.82L10.35,18a6.91,6.91,0,1,1,10.84,0Z"/><path class="cls-1" d="M15.77,10.47a3.11,3.11,0,1,0,3.11,3.11A3.11,3.11,0,0,0,15.77,10.47Zm0,5a1.87,1.87,0,1,1,1.86-1.87A1.87,1.87,0,0,1,15.77,15.45Z"/></g></g></svg>