<svg xmlns="http://www.w3.org/2000/svg" viewBox="0 0 19.97 22"><defs><style>.cls-1{fill:#bfc0c4;}</style></defs><title>Recurso 9</title><g id="Capa_2" data-name="Capa 2"><g id="Layer_1" data-name="Layer 1"><path class="cls-1" d="M3.14,15.72a2.75,2.75,0,0,0,2.75,2.75h7.47a5.9,5.9,0,0,0,5.89-5.9v-.39H3.14Z"/><path class="cls-1" d="M7.86,1.57H.79V11a.39.39,0,0,0,.39.4H7.86Z"/><rect class="cls-1" x="6.68" y="19.25" width="6.29" height="2.75"/><path class="cls-1" d="M8.64.39A.39.39,0,0,0,8.25,0H.39A.39.39,0,0,0,0,.39a.39.39,0,0,0,.39.4H8.25A.39.39,0,0,0,8.64.39Z"/><path class="cls-1" d="M8.64,11.4H20a1.16,1.16,0,0,0-1.11-.79H8.64Z"/></g></g></svg>