<svg xmlns="http://www.w3.org/2000/svg" viewBox="0 0 21.88 26.28"><defs><style>.cls-1{fill:#bfc0c4;}</style></defs><title>Recurso 8</title><g id="Capa_2" data-name="Capa 2"><g id="Layer_1" data-name="Layer 1"><path class="cls-1" d="M6.78,15.54a10.48,10.48,0,0,1,1.92.18V13.86h4.52v3.32a4.73,4.73,0,0,1,1.29.67,2.41,2.41,0,0,1,1.09,1.88,7,7,0,0,0,2.39-1c.25-.17.56-.32.74-.45V13.07l-7.79-8.7L3,13.12v3.13l1.58-.43A7.93,7.93,0,0,1,6.78,15.54Z"/><polygon class="cls-1" points="10.97 2.25 19.78 12.08 21.78 12.08 10.96 0 6.48 4.93 6.48 2.94 3.19 2.94 3.19 8.56 0.04 12.08 2.07 12.08 10.97 2.25"/><path class="cls-1" d="M20.79,19.07a3.76,3.76,0,0,0-2,.79,9.08,9.08,0,0,1-5.09,1.51,7.11,7.11,0,0,1-3.57-.84c-.45-.27-.45-.36-.19-.36.52,0,2.09.36,3.15.36.52,0,.92-.09,1-.35.43-1.21-1.24-1.6-3-2.31A12,12,0,0,0,6.79,17a6.68,6.68,0,0,0-1.8.23c-2.59.7-4.46,1.23-5,1.4v6.79a11,11,0,0,1,3-.77c1.29,0,6.5,1.67,9.45,1.67a4.88,4.88,0,0,0,1.09-.11c2.51-.61,6.86-4.15,8-5.36A1,1,0,0,0,20.79,19.07Z"/></g></g></svg>