<svg xmlns="http://www.w3.org/2000/svg" viewBox="0 0 21.26 21.74"><defs><style>.cls-1{fill:#bfc0c4;}</style></defs><title>Recurso 21</title><g id="Capa_2" data-name="Capa 2"><g id="Layer_1" data-name="Layer 1"><path class="cls-1" d="M7.68,12a.49.49,0,0,0-.49-.5H5.46A.49.49,0,0,0,5,12v1.72a.49.49,0,0,0,.49.49H7.19a.49.49,0,0,0,.49-.49V12Z"/><path class="cls-1" d="M12,12a.49.49,0,0,0-.49-.5H9.77a.49.49,0,0,0-.49.5v1.72a.49.49,0,0,0,.49.49h1.72a.49.49,0,0,0,.49-.49Z"/><path class="cls-1" d="M16.29,12a.5.5,0,0,0-.5-.5H14.07a.49.49,0,0,0-.49.5v1.72a.49.49,0,0,0,.49.49h1.72a.49.49,0,0,0,.5-.49Z"/><path class="cls-1" d="M7.68,16.3a.49.49,0,0,0-.49-.49H5.46A.49.49,0,0,0,5,16.3V18a.49.49,0,0,0,.49.49H7.19A.49.49,0,0,0,7.68,18V16.3Z"/><path class="cls-1" d="M12,16.3a.49.49,0,0,0-.49-.49H9.77a.49.49,0,0,0-.49.49V18a.49.49,0,0,0,.49.49h1.72A.49.49,0,0,0,12,18Z"/><path class="cls-1" d="M16.29,16.3a.49.49,0,0,0-.49-.49H14.07a.49.49,0,0,0-.49.49V18a.49.49,0,0,0,.49.49H15.8a.49.49,0,0,0,.49-.49V16.3Z"/><path class="cls-1" d="M19.37,2.42V5.05A2.16,2.16,0,0,1,17.21,7.2H15.86a2.16,2.16,0,0,1-2.17-2.15V2.41H7.57V5.05A2.16,2.16,0,0,1,5.4,7.2H4.05A2.16,2.16,0,0,1,1.89,5.05V2.42A2,2,0,0,0,0,4.37V19.78a2,2,0,0,0,2,2H19.31a2,2,0,0,0,2-2V4.37A2,2,0,0,0,19.37,2.42Zm-.63,16.4a.84.84,0,0,1-.85.84H3.33a.83.83,0,0,1-.84-.84v-8A.83.83,0,0,1,3.33,10H17.89a.84.84,0,0,1,.85.84v8Z"/><path class="cls-1" d="M4,5.79H5.38a.74.74,0,0,0,.74-.74V.74A.74.74,0,0,0,5.38,0H4A.74.74,0,0,0,3.3.74V5.05A.74.74,0,0,0,4,5.79Z"/><path class="cls-1" d="M15.84,5.79h1.34a.74.74,0,0,0,.74-.74V.74A.74.74,0,0,0,17.18,0H15.84a.74.74,0,0,0-.74.74V5.05A.74.74,0,0,0,15.84,5.79Z"/></g></g></svg>