<svg xmlns="http://www.w3.org/2000/svg" viewBox="0 0 612.17 62.62"><defs><style>.cls-1{fill:#e6b706;}.cls-2{fill:#fff;}</style></defs><title>Recurso 6</title><g id="Capa_2" data-name="Capa 2"><g id="Layer_1" data-name="Layer 1"><path class="cls-1" d="M260.28,28.71c4.85,0,8.79-4.51,8.79-10a10.77,10.77,0,0,0-2.58-7,12.59,12.59,0,0,0,.38-2.88c0-4.85-3-8.86-6.59-8.86s-6.66,4-6.66,8.86a11.93,11.93,0,0,0,.38,2.88,10.53,10.53,0,0,0-2.58,7C251.42,24.2,255.44,28.71,260.28,28.71Z"/><path class="cls-1" d="M268.85,11.21a13,13,0,0,1,2.42,7.54,12.78,12.78,0,0,1-3.65,9,7.84,7.84,0,0,0,3.65.92c4.84,0,8.78-4.51,8.78-10a10.61,10.61,0,0,0-2.57-7,12.5,12.5,0,0,0,.38-2.88c0-4.85-3-8.86-6.59-8.86a5.67,5.67,0,0,0-4.14,2,13,13,0,0,1,1.72,9.21Z"/><path class="cls-1" d="M341,28.71c4.85,0,8.79-4.51,8.79-10a10.85,10.85,0,0,0-2.57-7,12.59,12.59,0,0,0,.38-2.88c0-4.85-3-8.86-6.6-8.86s-6.66,4-6.66,8.86a12.5,12.5,0,0,0,.38,2.88,10.59,10.59,0,0,0-2.58,7C332.11,24.2,336.13,28.71,341,28.71Z"/><path class="cls-1" d="M349.54,11.21A13,13,0,0,1,352,18.75a12.78,12.78,0,0,1-3.65,9,7.84,7.84,0,0,0,3.65.92c4.85,0,8.79-4.51,8.79-10a10.59,10.59,0,0,0-2.58-7,12.5,12.5,0,0,0,.38-2.88C358.55,4,355.59,0,352,0a5.65,5.65,0,0,0-4.13,2,13,13,0,0,1,1.71,9.21Z"/><path class="cls-1" d="M354.16,35V30.66a10,10,0,0,1-2.2.25,9.67,9.67,0,0,1-2.2-.27V35h-6.59V30.66a9.76,9.76,0,0,1-4.39,0V35h-19.3V21.73H322a1.83,1.83,0,0,0,1.23-3.18l-2.95-2.69V10a1,1,0,0,0-1.05-1h-6.5l-5.48-5a1.82,1.82,0,0,0-2.45,0l-16,14.56a1.83,1.83,0,0,0,1.23,3.18h2.55V35h-5.91V33.1h1.1a1.1,1.1,0,1,0,0-2.19h-1.1v-3.3a1.1,1.1,0,0,0-1.1-1.1H279a1.1,1.1,0,0,0-1.1,1.1v3.3h-1.1a1.1,1.1,0,1,0,0,2.19h1.1V35h-4.4V30.66a9.94,9.94,0,0,1-2.19.25,9.53,9.53,0,0,1-2.2-.27V35h-6.59V30.66a9.81,9.81,0,0,1-4.4,0V35H0V62.62H612.17V35Zm-74.11-1.9h4.47V35h-4.47Z"/><path class="cls-2" d="M314.57,28.86l-3.81-3.95a6.45,6.45,0,1,0-4.94,2.3,6.35,6.35,0,0,0,3.7-1.17l3.83,4a.83.83,0,0,0,.61.26.78.78,0,0,0,.58-.24A.84.84,0,0,0,314.57,28.86ZM305.82,16a4.77,4.77,0,1,1-4.77,4.77A4.78,4.78,0,0,1,305.82,16Z"/></g></g></svg>