<svg xmlns="http://www.w3.org/2000/svg" viewBox="0 0 11.21 11.21"><defs><style>.cls-1{fill:#fff;}</style></defs><title>Recurso 3</title><g id="Capa_2" data-name="Capa 2"><g id="Layer_1" data-name="Layer 1"><path class="cls-1" d="M11.18,3.3a3.85,3.85,0,0,0-.26-1.36,2.66,2.66,0,0,0-.65-1,2.81,2.81,0,0,0-1-.64A4.12,4.12,0,0,0,7.92,0c-.6,0-.79,0-2.31,0S3.89,0,3.3,0A4.36,4.36,0,0,0,1.94.29,2.84,2.84,0,0,0,.3,1.93,4.18,4.18,0,0,0,0,3.29c0,.6,0,.79,0,2.32S0,7.32,0,7.92A4.49,4.49,0,0,0,.29,9.28a3,3,0,0,0,.65,1,2.71,2.71,0,0,0,1,.65,4.2,4.2,0,0,0,1.36.26c.6,0,.79,0,2.32,0s1.71,0,2.31,0a4.2,4.2,0,0,0,1.36-.26,2.88,2.88,0,0,0,1.64-1.64,4.49,4.49,0,0,0,.26-1.36c0-.6,0-.79,0-2.31S11.21,3.89,11.18,3.3Zm-1,4.57a2.86,2.86,0,0,1-.19,1A1.88,1.88,0,0,1,8.91,10a2.86,2.86,0,0,1-1,.19c-.59,0-.76,0-2.26,0s-1.68,0-2.27,0a3,3,0,0,1-1-.19,1.7,1.7,0,0,1-.64-.42,1.7,1.7,0,0,1-.42-.64,3,3,0,0,1-.19-1c0-.6,0-.77,0-2.27s0-1.67,0-2.26a2.86,2.86,0,0,1,.19-1,1.66,1.66,0,0,1,.42-.65,1.78,1.78,0,0,1,.65-.42,3.39,3.39,0,0,1,1-.19c.59,0,.77,0,2.26,0s1.68,0,2.27,0a3.53,3.53,0,0,1,1,.19,1.83,1.83,0,0,1,.64.42,1.66,1.66,0,0,1,.42.65,2.86,2.86,0,0,1,.19,1c0,.59,0,.77,0,2.26S10.2,7.28,10.17,7.87Z"/><path class="cls-1" d="M5.61,2.73A2.88,2.88,0,1,0,8.49,5.61,2.88,2.88,0,0,0,5.61,2.73Zm0,4.75A1.87,1.87,0,1,1,7.48,5.61,1.87,1.87,0,0,1,5.61,7.48Z"/><path class="cls-1" d="M8.6,1.94a.67.67,0,0,0-.67.67.67.67,0,1,0,1.34,0A.67.67,0,0,0,8.6,1.94Z"/></g></g></svg>