<svg xmlns="http://www.w3.org/2000/svg" viewBox="0 0 31.54 31.54"><defs><style>.cls-1{fill:#39211f;}</style></defs><title>Recurso 13</title><g id="Capa_2" data-name="Capa 2"><g id="Layer_1" data-name="Layer 1"><path class="cls-1" d="M29.8,1.73A5.71,5.71,0,0,0,25.62,0H5.91A5.72,5.72,0,0,0,1.73,1.73,5.72,5.72,0,0,0,0,5.91V25.62A5.71,5.71,0,0,0,1.73,29.8a5.69,5.69,0,0,0,4.18,1.74H25.62a5.94,5.94,0,0,0,5.92-5.92V5.91A5.69,5.69,0,0,0,29.8,1.73Zm-4,22.21a3.71,3.71,0,0,1-1.94,1.64,6.47,6.47,0,0,1-2.68.7,5.91,5.91,0,0,1-.7-.05l-.63-.1c-.17,0-.39-.1-.67-.19l-.61-.2-.68-.26-.61-.23a18.32,18.32,0,0,1-6.58-4.44,18.45,18.45,0,0,1-4.45-6.58l-.22-.62-.26-.68q-.08-.18-.21-.6c-.08-.28-.15-.51-.18-.68s-.07-.38-.1-.62a4.35,4.35,0,0,1,0-.7A6.56,6.56,0,0,1,6,7.65,3.73,3.73,0,0,1,7.6,5.71a5.38,5.38,0,0,1,2.07-.45.92.92,0,0,1,.33,0,1.24,1.24,0,0,1,.34.37,6.87,6.87,0,0,1,.51.83l.55,1c.17.32.35.63.51.94s.27.5.31.58.13.2.26.39a3.07,3.07,0,0,1,.31.52,1,1,0,0,1,.1.43,1.25,1.25,0,0,1-.42.75,8,8,0,0,1-.92.81,7.91,7.91,0,0,0-.93.79,1.12,1.12,0,0,0-.41.69.89.89,0,0,0,.07.33,1.74,1.74,0,0,0,.13.32c0,.09.11.2.19.35l.18.29a15.47,15.47,0,0,0,2.6,3.5,15.47,15.47,0,0,0,3.5,2.6l.29.17.34.2.32.13a1,1,0,0,0,.34.07c.22,0,.52-.22.91-.67s.77-.9,1.17-1.35.71-.67,1-.67a1,1,0,0,1,.43.11,3.34,3.34,0,0,1,.52.3l.38.27,1.09.6c.73.38,1.33.72,1.82,1s.75.5.79.61a.92.92,0,0,1,0,.33A5.45,5.45,0,0,1,25.83,23.94Z"/></g></g></svg>